<?xml version="1.0" encoding="utf-8"?>
<svg version="1.1" id="Слой_1" xmlns="http://www.w3.org/2000/svg" xmlns:xlink="http://www.w3.org/1999/xlink" x="0px" y="0px"
	 viewBox="235 230 618 620" xml:space="preserve">
<style type="text/css">
	.st0{fill:#fff;}
	.st1{fill:#4b80a2;}
	.st2{fill:#fff;}
	.st3{fill:#4b80a2;}
	.st4{fill:#4B80A2;}
	.st5{fill:#fff;}
	.st6{fill:#fff;}
</style>
<g>
	<g>
		<path class="st0" d="M540,821.18l-3.8-1.03c-7.15-1.93-71.55-20.81-128.98-87.51c-51.33-59.63-108.43-172.23-88.94-370.08
			l1.51-15.31l13.75-0.77c39.52-2.22,114.89-12.39,175.59-55.55c4.86-3.46,14.4-11.32,21.09-17l9.8-8.32l0.01,0.01v-14.62
			l-0.01-0.01l-8.84,7.35c-7.26,6.04-17.62,14.41-22.96,18.13c-66.09,46.06-148.04,56.9-191.01,59.26l-12.55,0.69l-1.4,13.96
			c-20.95,208.42,40.32,326.91,95.4,389.61c61.49,69.98,130.29,89.75,137.93,91.77l3.4,0.9l0.02-0.01v-11.47L540,821.18z"/>
		<path class="st0" d="M540.01,272.15l-6.57,5.58c-6.77,5.75-16.44,13.71-21.43,17.26c-61.72,43.89-138.14,54.22-178.19,56.47
			l-9.49,0.53l-1.09,11.07C303.92,559.14,360.3,670.5,411,729.39c56.45,65.57,119.5,84.06,126.5,85.95l2.5,0.68l0.02-0.01V272.16
			L540.01,272.15z"/>
		<path class="st1" d="M533.19,847.81l6.81,1.8l0.02-0.01v-16.97l-0.02,0.01l-3.4-0.9c-7.64-2.02-76.45-21.78-137.93-91.77
			c-55.09-62.7-116.35-181.19-95.4-389.61l1.4-13.96l12.55-0.69c42.97-2.36,124.92-13.21,191.01-59.26
			c5.34-3.72,15.7-12.09,22.96-18.13l8.84-7.35l0.01,0.01v-20.6l0,0l-17.67,14.7c-1.9,1.58-3.93,3.26-5.99,4.93
			c-3.59,2.93-7.25,5.85-10.36,8.25c-1.33,1.03-2.56,1.97-3.65,2.77c-0.72,0.53-1.38,1.01-1.96,1.41c-5.93,4.13-12,7.97-18.17,11.53
			c-4.11,2.37-8.26,4.63-12.44,6.76c-4.18,2.14-8.39,4.16-12.62,6.07c-8.46,3.82-16.98,7.2-25.46,10.2
			c-2.12,0.75-4.24,1.47-6.35,2.17c-4.23,1.4-8.44,2.71-12.62,3.93c-2.09,0.61-4.17,1.2-6.25,1.76c-8.3,2.27-16.45,4.19-24.36,5.83
			c-3.95,0.82-7.85,1.57-11.66,2.25c-3.82,0.68-7.56,1.3-11.21,1.85s-7.22,1.05-10.68,1.49c-12.12,1.55-23.01,2.43-32.09,2.93
			l-1.19,0.07l-23.92,1.32l-2.8,27.91c-2.7,26.86-4.07,52.28-4.28,76.33c-0.03,3.01-0.03,5.99-0.02,8.96
			c0.03,8.89,0.22,17.59,0.55,26.1c0.23,5.67,0.52,11.27,0.87,16.77c0.53,8.26,1.21,16.34,2.02,24.23
			c0.81,7.9,1.76,15.61,2.82,23.14c0.71,5.02,1.48,9.97,2.3,14.83c2.87,17.03,6.39,33.1,10.43,48.25c1.15,4.33,2.35,8.59,3.59,12.77
			c3.71,12.55,7.78,24.43,12.14,35.68c1.45,3.75,2.93,7.43,4.45,11.04c5.29,12.64,10.93,24.42,16.81,35.4
			c4.2,7.84,8.51,15.28,12.9,22.31c1.76,2.82,3.52,5.57,5.3,8.26c0.89,1.35,1.78,2.67,2.67,3.99c1.78,2.63,3.58,5.2,5.37,7.7
			c7.19,10.03,14.46,19.08,21.62,27.24C452.51,824.83,525.12,845.68,533.19,847.81z"/>
		<path class="st1" d="M530.22,273.92c-6.69,5.68-16.23,13.54-21.09,17c-60.7,43.16-136.06,53.33-175.59,55.55l-13.75,0.77
			l-1.51,15.31c-19.49,197.85,37.61,310.45,88.94,370.08c57.42,66.7,121.82,85.58,128.98,87.51l3.8,1.03l0.02-0.01v-5.16l-0.02,0.01
			l-2.5-0.68c-7-1.89-70.05-20.38-126.5-85.95c-50.7-58.89-107.08-170.25-87.76-366.34l1.09-11.07l9.49-0.53
			c40.06-2.25,116.48-12.58,178.19-56.47c4.99-3.55,14.66-11.52,21.43-17.26l6.57-5.58l0.02,0.01v-6.54l-0.01-0.01L530.22,273.92z"
			/>
		<path class="st2" d="M681.34,739.98c55.09-62.7,116.36-181.19,95.4-389.61l-1.4-13.96l-12.55-0.69
			c-42.97-2.36-124.92-13.21-191.01-59.26c-5.9-4.11-17.58-13.65-22.94-18.12l-8.81-7.35v14.62l9.78,8.32
			c4.92,4.19,15.66,13.14,21.08,16.99c60.69,43.16,136.06,53.33,175.58,55.55l13.75,0.77l1.51,15.31
			c19.49,197.85-37.61,310.45-88.94,370.08c-57.43,66.71-121.82,85.58-128.98,87.51l-3.78,1.02v11.47l3.38-0.9
			C551.05,829.72,619.85,809.96,681.34,739.98z"/>
		<path class="st2" d="M669,729.39c50.7-58.89,107.08-170.25,87.76-366.34l-1.09-11.07l-9.49-0.53
			c-40.06-2.25-116.48-12.58-178.19-56.47c-5.55-3.95-16.44-13.01-21.42-17.25l-6.55-5.57v543.85l2.48-0.67
			C549.51,813.45,612.55,794.97,669,729.39z"/>
		<path class="st3" d="M548.84,258.34c5.36,4.47,17.05,14.01,22.94,18.12c66.09,46.06,148.04,56.9,191.01,59.26l12.55,0.69
			l1.4,13.96c20.95,208.42-40.32,326.91-95.4,389.61c-61.49,69.98-130.29,89.75-137.93,91.77l-3.38,0.9v16.97l6.79-1.8
			c0.88-0.23,2.54-0.69,4.87-1.42c0.41-0.13,0.86-0.27,1.31-0.42c0.64-0.21,1.32-0.43,2.05-0.67c2.07-0.69,4.46-1.52,7.14-2.52
			c1.07-0.4,2.19-0.82,3.36-1.28c1.16-0.45,2.37-0.93,3.62-1.44c1.25-0.51,2.54-1.04,3.87-1.61c0.67-0.28,1.34-0.57,2.03-0.87
			c1.37-0.59,2.78-1.22,4.22-1.87c1.45-0.65,2.93-1.34,4.44-2.05c4.55-2.15,9.4-4.58,14.5-7.32c0.85-0.46,1.71-0.92,2.57-1.4
			c2.59-1.42,5.24-2.93,7.94-4.52c1.24-0.73,2.5-1.48,3.76-2.25c1.82-1.1,3.66-2.24,5.53-3.42c5-3.17,10.15-6.61,15.38-10.34
			c2.25-1.6,4.51-3.25,6.78-4.96c2.43-1.83,4.88-3.72,7.33-5.68c1.11-0.89,2.23-1.78,3.35-2.7c3.36-2.74,6.73-5.6,10.12-8.58
			c0.23-0.21,0.47-0.41,0.7-0.62c4.98-4.42,9.97-9.11,14.95-14.09c0.01-0.01,0.02-0.02,0.03-0.03c5.1-5.1,10.18-10.51,15.21-16.23
			c33.15-37.73,68.46-94.72,88.18-177.61c1.6-6.72,3.1-13.61,4.48-20.68c0.46-2.35,0.91-4.73,1.35-7.12
			c0.87-4.79,1.69-9.65,2.46-14.6c1.53-9.89,2.85-20.09,3.93-30.62c0.81-7.9,1.49-15.97,2.02-24.23c0.36-5.51,0.65-11.1,0.87-16.77
			c0.34-8.51,0.52-17.21,0.55-26.1c0-0.01,0-0.02,0-0.03c0.02-5.88-0.03-11.84-0.16-17.88c0-0.12-0.01-0.25-0.01-0.38
			c-0.44-21.27-1.78-43.59-4.14-67l-2.52-25.11l-0.28-2.8l-25.1-1.38c-5.19-0.29-10.97-0.7-17.23-1.29
			c-1.57-0.15-3.16-0.31-4.79-0.48c-3.25-0.34-6.61-0.73-10.08-1.17c-8.66-1.1-17.95-2.54-27.67-4.41
			c-1.94-0.37-3.91-0.77-5.88-1.18c-3.95-0.82-7.97-1.71-12.03-2.68c-4.06-0.97-8.18-2.02-12.33-3.15c-2.7-0.74-5.42-1.52-8.14-2.34
			c-2.89-0.86-5.78-1.76-8.69-2.7c-1.22-0.4-2.43-0.8-3.65-1.21c-3.13-1.05-6.26-2.16-9.4-3.32c-1.39-0.51-2.78-1.04-4.17-1.58
			c-4.25-1.64-8.51-3.38-12.75-5.22c-4.46-1.94-8.9-4-13.32-6.19c-4.8-2.38-9.57-4.9-14.29-7.59c-6.62-3.78-13.14-7.85-19.5-12.28
			c-0.85-0.59-1.86-1.33-2.98-2.17c-3.91-2.94-9.16-7.13-13.69-10.83c-1.94-1.58-3.75-3.08-5.25-4.33l-17.65-14.73v20.6
			L548.84,258.34z"/>
		<path class="st3" d="M546.57,277.73c4.98,4.24,15.87,13.31,21.42,17.25c61.71,43.89,138.13,54.22,178.19,56.47l9.49,0.53
			l1.09,11.07C776.08,559.14,719.7,670.5,669,729.39l1.89,1.63l-1.89-1.63c-56.46,65.58-119.5,84.06-126.5,85.95l-2.48,0.67v5.16
			l3.78-1.02c7.15-1.93,71.55-20.8,128.98-87.51c51.33-59.63,108.43-172.23,88.94-370.08l-1.51-15.31l-13.75-0.77
			c-39.52-2.22-114.89-12.39-175.58-55.55c-5.41-3.85-16.15-12.79-21.08-16.99l-9.78-8.32v6.54L546.57,277.73z"/>
	</g>
	<g>
		<g>
			<g>
				<path class="st4" d="M376.17,786.31c-40.26,5.76-80.29,13.66-119.92,23.69c9.24-20.54,19.14-41,29.71-61.32
					c-17.99-14.19-36.56-27.98-55.7-41.34c43.26-10.95,86.96-19.57,130.9-25.87C366.16,716.42,371.17,751.36,376.17,786.31z"/>
				<path class="st5" d="M378.3,787.89c-42.1,5.96-83.95,14.25-125.36,24.88c9.47-21.3,19.66-42.5,30.56-63.56
					c-18.66-14.65-37.94-28.87-57.83-42.63c45.34-11.64,91.17-20.72,137.27-27.25C368.06,715.52,373.18,751.71,378.3,787.89z
					 M259.57,807.24c37.84-9.45,76.05-16.95,114.46-22.51c-4.88-33.7-9.76-67.41-14.64-101.11c-41.8,6.05-83.38,14.22-124.56,24.5
					c18.4,12.96,36.27,26.31,53.59,40.04C278.18,767.74,268.56,787.45,259.57,807.24z"/>
			</g>
			<g>
				<path class="st4" d="M703.83,786.31c40.26,5.76,80.29,13.66,119.92,23.7c-9.23-20.54-19.14-41-29.71-61.32
					c17.99-14.19,36.56-27.98,55.7-41.34c-43.26-10.95-86.96-19.57-130.91-25.87C713.84,716.42,708.84,751.36,703.83,786.31z"/>
				<path class="st5" d="M827.06,812.77c-41.41-10.63-83.26-18.93-125.36-24.88c5.12-36.18,10.24-72.37,15.36-108.55
					c46.1,6.52,91.93,15.6,137.27,27.25c-19.89,13.76-39.17,27.98-57.82,42.63C807.41,770.28,817.59,791.48,827.06,812.77z
					 M705.97,784.73c38.41,5.56,76.62,13.07,114.46,22.51c-8.99-19.79-18.61-39.5-28.85-59.08c17.32-13.72,35.19-27.08,53.59-40.04
					c-41.18-10.28-82.76-18.45-124.56-24.5C715.73,717.32,710.85,751.03,705.97,784.73z"/>
			</g>
			<g>
				<path class="st4" d="M768.31,781.24c-150.72-29.93-305.88-29.94-456.6,0c-6.88-34.63-13.75-69.25-20.63-103.88
					c164.34-32.64,333.52-32.64,497.86,0C782.06,711.99,775.18,746.62,768.31,781.24z"/>
				<path class="st5" d="M769.82,783.45c-151.7-30.39-307.93-30.39-459.64,0c-7.18-35.84-14.36-71.67-21.53-107.51
					c165.92-33.23,336.79-33.23,502.7,0C784.18,711.78,777,747.61,769.82,783.45z M313.23,779.04
					c149.74-29.48,303.81-29.48,453.55,0c6.58-33.42,13.16-66.83,19.74-100.25c-162.78-32.05-330.25-32.05-493.03,0
					C300.07,712.2,306.65,745.62,313.23,779.04z"/>
			</g>
		</g>
		<g>
			<path class="st5" d="M329.11,741.84c-1.6-9.01-3.2-18.02-4.79-27.03c2.75-0.49,5.51-0.97,8.26-1.44
				c2.55-0.43,4.89-0.29,7.02,0.43c2.13,0.72,3.88,1.96,5.25,3.71c1.37,1.75,2.26,3.88,2.67,6.37c0.09,0.58,0.18,1.15,0.28,1.73
				c0.41,2.56,0.24,4.88-0.5,6.97c-0.74,2.09-2,3.81-3.76,5.16c-1.77,1.35-3.93,2.25-6.5,2.71
				C334.39,740.91,331.75,741.37,329.11,741.84z M328.69,717.05c1.23,7.07,2.46,14.14,3.69,21.21c1.33-0.23,2.65-0.46,3.98-0.69
				c2.92-0.5,5.04-1.73,6.39-3.71c1.34-1.98,1.77-4.55,1.25-7.72c-0.09-0.53-0.17-1.06-0.26-1.58c-0.5-3.08-1.67-5.35-3.5-6.8
				c-1.84-1.45-4.19-1.95-7.06-1.49C331.68,716.53,330.18,716.79,328.69,717.05z"/>
			<path class="st5" d="M378.97,721.11c0.35,2.67,0.18,5.06-0.5,7.17c-0.69,2.11-1.83,3.81-3.42,5.1c-1.59,1.29-3.55,2.09-5.86,2.42
				c-2.26,0.32-4.34,0.09-6.25-0.7c-1.9-0.79-3.49-2.08-4.76-3.88c-1.27-1.8-2.11-3.97-2.53-6.53c-0.1-0.65-0.2-1.31-0.3-1.96
				c-0.4-2.61-0.27-4.99,0.41-7.14c0.68-2.15,1.83-3.89,3.46-5.22c1.63-1.33,3.62-2.16,5.93-2.49c2.36-0.34,4.51-0.1,6.45,0.7
				c1.94,0.8,3.53,2.14,4.76,4.01c1.23,1.87,2.02,4.13,2.38,6.79C378.82,719.97,378.89,720.54,378.97,721.11z M374.92,719.87
				c-0.44-3.23-1.47-5.61-3.1-7.14c-1.63-1.53-3.71-2.12-6.22-1.76c-2.44,0.35-4.24,1.49-5.38,3.42c-1.14,1.93-1.5,4.43-1.09,7.49
				c0.1,0.67,0.2,1.33,0.3,1.99c0.47,3.12,1.53,5.47,3.19,7.05c1.65,1.58,3.7,2.19,6.14,1.84c2.45-0.35,4.23-1.46,5.35-3.33
				c1.12-1.87,1.48-4.39,1.09-7.54C375.1,721.22,375.01,720.54,374.92,719.87z"/>
			<path class="st5" d="M409.64,721.58c-0.05,2.93-0.93,5.28-2.66,7.05c-1.72,1.78-4.15,2.84-7.28,3.21c-3.4,0.4-6.26-0.42-8.6-2.48
				c-2.34-2.05-3.77-5.01-4.25-8.87c-0.11-0.87-0.22-1.75-0.33-2.62c-0.32-2.53-0.12-4.82,0.61-6.86c0.73-2.04,1.94-3.69,3.6-4.94
				c1.66-1.25,3.68-2.01,6.04-2.29c3.13-0.37,5.73,0.16,7.8,1.57c2.06,1.41,3.4,3.53,4.02,6.36c-1.29,0.14-2.59,0.28-3.88,0.42
				c-0.58-2.14-1.48-3.64-2.71-4.49c-1.23-0.85-2.86-1.16-4.88-0.92c-2.48,0.29-4.32,1.37-5.51,3.24c-1.2,1.87-1.59,4.37-1.21,7.51
				c0.11,0.88,0.22,1.76,0.33,2.64c0.37,2.96,1.31,5.23,2.84,6.82c1.53,1.59,3.46,2.24,5.81,1.97c2.12-0.25,3.68-0.88,4.71-1.92
				c1.03-1.03,1.6-2.69,1.73-4.98C407.07,721.86,408.36,721.72,409.64,721.58z"/>
			<path class="st5" d="M434.01,715.2c-4.21,0.37-8.43,0.76-12.64,1.17c0.32,3.23,0.63,6.46,0.95,9.68
				c4.85-0.47,9.71-0.92,14.56-1.33c0.08,0.98,0.17,1.97,0.25,2.95c-6.11,0.52-12.22,1.09-18.33,1.71
				c-0.92-9.1-1.84-18.21-2.76-27.31c6.18-0.62,12.36-1.2,18.54-1.73c0.08,0.98,0.17,1.97,0.25,2.95
				c-4.87,0.42-9.75,0.86-14.62,1.34c0.29,2.93,0.57,5.87,0.86,8.8c4.22-0.41,8.44-0.8,12.67-1.17
				C433.84,713.24,433.92,714.22,434.01,715.2z"/>
			<path class="st5" d="M467.12,725.48c-1.28,0.08-2.56,0.16-3.83,0.24c-5.3-6.73-10.68-13.42-16.14-20.08
				c0.53,7.03,1.07,14.06,1.6,21.09c-1.28,0.1-2.55,0.2-3.83,0.3c-0.72-9.12-1.44-18.24-2.16-27.37c1.31-0.1,2.61-0.2,3.91-0.3
				c5.51,6.69,10.93,13.41,16.27,20.17c-0.45-7.07-0.9-14.14-1.35-21.21c1.29-0.08,2.58-0.16,3.88-0.24
				C466.02,707.22,466.57,716.35,467.12,725.48z"/>
			<path class="st5" d="M476.94,724.93c-0.48-9.14-0.96-18.28-1.43-27.41c2.78-0.15,5.57-0.28,8.35-0.41
				c2.57-0.12,4.87,0.31,6.89,1.29c2.02,0.98,3.59,2.42,4.74,4.33c1.14,1.91,1.76,4.13,1.86,6.65c0.02,0.58,0.04,1.17,0.06,1.75
				c0.09,2.59-0.36,4.87-1.35,6.86c-0.99,1.98-2.44,3.54-4.35,4.66c-1.91,1.12-4.17,1.75-6.76,1.89
				C482.28,724.66,479.61,724.79,476.94,724.93z M479.56,700.27c0.35,7.17,0.7,14.34,1.06,21.5c1.34-0.07,2.68-0.13,4.02-0.19
				c2.95-0.13,5.2-1.1,6.78-2.9c1.58-1.8,2.31-4.3,2.18-7.51c-0.02-0.53-0.04-1.07-0.06-1.6c-0.12-3.12-0.99-5.51-2.63-7.18
				c-1.64-1.67-3.91-2.45-6.8-2.34C482.58,700.13,481.07,700.2,479.56,700.27z"/>
			<path class="st5" d="M528.82,710.49c0.03,2.69-0.43,5.04-1.37,7.06c-0.94,2.01-2.28,3.56-4.01,4.64
				c-1.74,1.08-3.77,1.64-6.1,1.68c-2.28,0.04-4.31-0.44-6.1-1.46c-1.79-1.02-3.2-2.5-4.23-4.44c-1.03-1.94-1.6-4.2-1.7-6.79
				c-0.02-0.66-0.04-1.32-0.06-1.98c-0.08-2.64,0.35-4.98,1.28-7.03c0.93-2.05,2.28-3.63,4.07-4.75c1.78-1.12,3.84-1.7,6.17-1.74
				c2.37-0.04,4.48,0.45,6.3,1.49c1.82,1.04,3.23,2.56,4.22,4.57c0.99,2.01,1.5,4.35,1.52,7.03
				C528.81,709.34,528.82,709.91,528.82,710.49z M524.96,708.76c-0.04-3.26-0.77-5.75-2.2-7.47c-1.42-1.72-3.41-2.56-5.94-2.51
				c-2.46,0.05-4.38,0.96-5.75,2.73c-1.37,1.78-2.03,4.21-1.99,7.3c0.02,0.67,0.03,1.34,0.05,2.02c0.08,3.15,0.85,5.62,2.29,7.38
				c1.45,1.77,3.39,2.63,5.85,2.58c2.47-0.05,4.37-0.93,5.7-2.65c1.33-1.72,2.01-4.17,2.01-7.35
				C524.98,710.12,524.97,709.44,524.96,708.76z"/>
			<path class="st5" d="M550.85,723.33c0.08-9.15,0.16-18.3,0.25-27.45c2.79,0.03,5.57,0.06,8.36,0.1c2.58,0.04,4.84,0.61,6.8,1.71
				c1.95,1.1,3.44,2.64,4.47,4.61c1.02,1.98,1.51,4.23,1.45,6.75c-0.02,0.58-0.03,1.17-0.05,1.75c-0.07,2.59-0.66,4.84-1.77,6.76
				c-1.11,1.92-2.65,3.38-4.63,4.38c-1.98,1-4.26,1.49-6.86,1.48C556.2,723.39,553.53,723.35,550.85,723.33z M554.97,698.88
				c-0.09,7.18-0.18,14.35-0.26,21.53c1.34,0.02,2.68,0.03,4.03,0.06c2.95,0.05,5.26-0.78,6.94-2.48c1.68-1.7,2.56-4.15,2.64-7.36
				c0.01-0.53,0.02-1.07,0.04-1.6c0.08-3.12-0.66-5.56-2.19-7.32c-1.53-1.76-3.75-2.69-6.65-2.76
				C558,698.92,556.48,698.9,554.97,698.88z"/>
			<path class="st5" d="M584.7,724.11c-1.27-0.05-2.54-0.09-3.81-0.14c0.31-9.15,0.62-18.29,0.93-27.44c1.3,0.04,2.6,0.09,3.9,0.14
				C585.37,705.82,585.03,714.96,584.7,724.11z"/>
			<path class="st5" d="M603.88,712.72c-3.25-1.06-5.61-2.27-7.06-3.64c-1.45-1.37-2.13-3.01-2.05-4.92
				c0.1-2.16,1.11-3.91,3.03-5.23c1.93-1.33,4.39-1.91,7.36-1.76c2.03,0.11,3.83,0.57,5.37,1.39c1.55,0.82,2.72,1.9,3.51,3.23
				c0.79,1.33,1.14,2.76,1.05,4.28c-1.3-0.08-2.6-0.16-3.89-0.23c0.1-1.66-0.39-3-1.47-4.02c-1.08-1.01-2.65-1.58-4.72-1.69
				c-1.92-0.1-3.43,0.22-4.55,0.95c-1.11,0.73-1.7,1.8-1.77,3.2c-0.05,1.12,0.41,2.09,1.39,2.91c0.98,0.82,2.66,1.62,5.07,2.39
				c2.4,0.77,4.26,1.58,5.59,2.44c1.33,0.85,2.29,1.81,2.89,2.88c0.6,1.07,0.86,2.3,0.77,3.69c-0.14,2.22-1.16,3.94-3.07,5.17
				c-1.91,1.23-4.38,1.76-7.44,1.59c-1.98-0.11-3.82-0.56-5.51-1.36c-1.69-0.81-2.97-1.85-3.85-3.15c-0.88-1.3-1.29-2.74-1.22-4.34
				c1.29,0.06,2.57,0.12,3.86,0.18c-0.08,1.66,0.51,3,1.76,4.02c1.25,1.02,2.95,1.59,5.11,1.7c2.02,0.11,3.58-0.2,4.7-0.91
				c1.12-0.72,1.72-1.75,1.8-3.09c0.08-1.34-0.36-2.41-1.32-3.2C608.26,714.4,606.48,713.57,603.88,712.72z"/>
			<path class="st5" d="M643.89,719.02c-0.61,2.86-1.93,5-3.96,6.41c-2.03,1.41-4.62,2-7.76,1.75c-3.41-0.26-6.06-1.62-7.96-4.08
				c-1.9-2.46-2.73-5.64-2.47-9.52c0.06-0.88,0.12-1.76,0.18-2.63c0.17-2.55,0.8-4.75,1.92-6.62c1.11-1.86,2.59-3.25,4.47-4.16
				c1.87-0.91,3.99-1.27,6.36-1.09c3.14,0.24,5.59,1.26,7.35,3.04c1.75,1.78,2.66,4.12,2.72,7.01c-1.3-0.11-2.59-0.22-3.89-0.33
				c-0.15-2.21-0.76-3.86-1.8-4.93c-1.05-1.07-2.58-1.69-4.61-1.84c-2.48-0.19-4.5,0.52-6.03,2.12c-1.53,1.61-2.41,3.99-2.63,7.13
				c-0.06,0.88-0.12,1.77-0.19,2.65c-0.21,2.97,0.29,5.39,1.47,7.24c1.19,1.85,2.96,2.86,5.32,3.04c2.12,0.16,3.78-0.16,4.99-0.98
				c1.21-0.82,2.09-2.34,2.65-4.56C641.31,718.8,642.6,718.91,643.89,719.02z"/>
			<path class="st5" d="M655.46,728.81c-1.27-0.12-2.54-0.24-3.8-0.36c0.85-9.11,1.69-18.22,2.54-27.33
				c1.3,0.12,2.59,0.24,3.89,0.37C657.21,710.6,656.34,719.71,655.46,728.81z"/>
			<path class="st5" d="M673.33,703.05c2.41,7.77,4.75,15.55,7.04,23.33c4.02-7.05,8.09-14.08,12.22-21.09
				c1.68,0.21,3.35,0.42,5.03,0.64c-1.17,9.08-2.34,18.15-3.5,27.23c-1.27-0.16-2.53-0.32-3.79-0.48c0.44-3.54,0.89-7.07,1.33-10.61
				c0.6-3.8,1.2-7.6,1.8-11.4c-4.13,6.95-8.21,13.92-12.22,20.9c-0.97-0.11-1.94-0.23-2.91-0.34c-2.3-7.7-4.66-15.4-7.07-23.1
				c-0.28,3.82-0.56,7.64-0.84,11.46c-0.38,3.54-0.76,7.09-1.14,10.63c-1.27-0.14-2.53-0.27-3.8-0.4c0.95-9.1,1.9-18.2,2.85-27.3
				C669.98,702.69,671.66,702.87,673.33,703.05z"/>
			<path class="st5" d="M728.25,710.26c-0.95,6.15-1.9,12.3-2.85,18.45c-0.41,2.56-1.59,4.52-3.53,5.89
				c-1.94,1.37-4.37,1.94-7.29,1.72c-0.34-0.04-0.67-0.07-1.01-0.11c-3.14-0.46-5.54-1.61-7.18-3.48c-1.65-1.87-2.29-4.2-1.94-7.02
				c0.84-6.18,1.69-12.35,2.53-18.53c1.28,0.17,2.56,0.35,3.84,0.53c-0.86,6.14-1.71,12.27-2.57,18.41
				c-0.27,1.97,0.09,3.57,1.08,4.83c0.99,1.25,2.55,2.03,4.67,2.34c2.14,0.31,3.87,0.02,5.17-0.89c1.3-0.91,2.11-2.35,2.4-4.31
				c0.93-6.13,1.85-12.27,2.78-18.4C725.65,709.86,726.95,710.06,728.25,710.26z"/>
			<path class="st5" d="M743.54,728.15c-3.12-1.43-5.33-2.91-6.62-4.43c-1.29-1.53-1.78-3.23-1.48-5.12
				c0.34-2.13,1.54-3.75,3.62-4.85c2.07-1.09,4.59-1.4,7.54-0.89c2.01,0.34,3.74,1.01,5.19,2c1.44,0.99,2.49,2.2,3.13,3.61
				c0.63,1.41,0.82,2.87,0.55,4.37c-1.28-0.23-2.57-0.46-3.85-0.68c0.29-1.64-0.05-3.03-1.01-4.16c-0.96-1.13-2.46-1.88-4.51-2.22
				c-1.9-0.32-3.45-0.18-4.64,0.42c-1.19,0.6-1.9,1.59-2.13,2.97c-0.19,1.11,0.17,2.12,1.05,3.05c0.88,0.93,2.47,1.91,4.77,2.96
				c2.3,1.04,4.07,2.07,5.29,3.07c1.22,1,2.07,2.07,2.55,3.2c0.48,1.13,0.59,2.38,0.34,3.76c-0.39,2.19-1.61,3.78-3.65,4.78
				c-2.04,1-4.57,1.24-7.6,0.72c-1.96-0.33-3.74-1-5.33-1.99c-1.59-0.99-2.75-2.18-3.47-3.58c-0.73-1.39-0.97-2.88-0.71-4.45
				c1.28,0.2,2.55,0.41,3.82,0.62c-0.26,1.64,0.16,3.04,1.29,4.2c1.12,1.16,2.76,1.92,4.9,2.28c2,0.34,3.6,0.22,4.79-0.36
				c1.2-0.58,1.92-1.54,2.15-2.86c0.23-1.32-0.08-2.44-0.95-3.33C747.7,730.32,746.03,729.3,743.54,728.15z"/>
		</g>
	</g>
	<g>
		<g>
			<path class="st4" d="M343.11,519.56c1.36,0,2.48,0.4,3.35,1.21c0.88,0.8,1.32,1.82,1.32,3.04c0,1.22-0.44,2.24-1.32,3.04
				s-2,1.21-3.35,1.21c-1.34,0-2.45-0.4-3.34-1.19c-0.89-0.8-1.33-1.81-1.33-3.05c0-1.24,0.44-2.26,1.33-3.05
				C340.66,519.96,341.77,519.56,343.11,519.56z"/>
			<path class="st4" d="M372.75,541.02h-8.49v-27.04l-8.34,2.44v-6.43l16.06-5.55h0.78V541.02z"/>
			<path class="st4" d="M400.72,526.87c-1.83,1.64-3.87,2.46-6.13,2.46c-3.32,0-5.95-1.12-7.89-3.37c-1.94-2.24-2.92-5.24-2.92-9
				c0-2.35,0.54-4.52,1.63-6.53c1.09-2.01,2.62-3.6,4.59-4.77c1.97-1.17,4.14-1.76,6.52-1.76c2.41,0,4.59,0.61,6.55,1.82
				c1.95,1.21,3.47,2.93,4.56,5.15c1.09,2.22,1.65,4.78,1.68,7.68v3.24c0,4.04-0.79,7.54-2.37,10.5c-1.58,2.97-3.84,5.24-6.77,6.84
				c-2.93,1.59-6.35,2.39-10.25,2.39h-0.53v-6.79l1.61-0.02C396.83,534.43,400.07,531.82,400.72,526.87z M396.88,523.23
				c1.84,0,3.17-0.8,3.97-2.39v-3.52c0-2.35-0.39-4.08-1.18-5.2c-0.79-1.12-1.85-1.68-3.19-1.68c-1.19,0-2.19,0.64-2.99,1.91
				c-0.8,1.27-1.21,2.81-1.21,4.62c0,1.91,0.41,3.43,1.23,4.56C394.33,522.66,395.45,523.23,396.88,523.23z"/>
		</g>
		<g>
			<path class="st4" d="M696.29,508.96l-13.67,32.07h-8.95l13.7-30.06h-17.44v-6.53h26.36V508.96z"/>
			<path class="st4" d="M701.42,523.15l2.24-18.72h21.39v6.58h-14.5l-0.83,7.27c0.6-0.35,1.39-0.66,2.37-0.93
				c0.98-0.27,1.94-0.4,2.88-0.4c3.64,0,6.43,1.08,8.38,3.23c1.95,2.15,2.93,5.17,2.93,9.06c0,2.35-0.52,4.47-1.57,6.37
				c-1.05,1.9-2.52,3.36-4.41,4.39c-1.89,1.02-4.13,1.53-6.71,1.53c-2.3,0-4.45-0.47-6.46-1.42c-2.01-0.95-3.59-2.24-4.72-3.89
				c-1.14-1.65-1.7-3.51-1.68-5.59h8.49c0.08,1.34,0.51,2.4,1.28,3.18c0.77,0.79,1.78,1.18,3.04,1.18c2.85,0,4.27-2.11,4.27-6.32
				c0-3.89-1.74-5.84-5.23-5.84c-1.98,0-3.45,0.63-4.42,1.91L701.42,523.15z"/>
			<path class="st4" d="M736.89,519.56c1.36,0,2.48,0.4,3.35,1.21c0.88,0.8,1.32,1.82,1.32,3.04c0,1.22-0.44,2.24-1.32,3.04
				s-2,1.21-3.35,1.21c-1.34,0-2.45-0.4-3.34-1.19c-0.89-0.8-1.33-1.81-1.33-3.05c0-1.24,0.44-2.26,1.33-3.05
				C734.43,519.96,735.55,519.56,736.89,519.56z"/>
		</g>
		<g>
			<rect x="391.42" y="608.07" class="st4" width="296.37" height="22.67"/>
			<g>
				<polygon class="st4" points="539.6,373.12 392.39,435.26 392.39,447.31 686.82,447.31 686.82,435.26 				"/>
				<path class="st6" d="M539.53,435.04c-11.35,0.26-23.28-9.44-22.28-24.19c0.75-11.11,10.25-21.03,23.19-20.59
					c12.32,0.42,21.67,10.67,21.57,22.56C561.91,425.33,551.53,435.26,539.53,435.04z M523.46,401.64c1.88,0,3.52,0.07,5.14-0.02
					c1.04-0.06,1.62,0.33,2.18,1.17c1.26,1.87,2.64,3.66,4.09,5.64c0.91-1.23,1.61-2.36,2.51-3.3c0.49-0.51,1.31-0.99,1.99-1.01
					c3.74-0.09,7.48-0.06,11.21-0.02c0.79,0.01,1.62,0.12,2.35,0.4c2.87,1.14,4.34,3.92,3.81,6.99c-0.5,2.87-2.96,5-5.99,5.06
					c-3.55,0.07-7.1-0.02-10.64,0.12c-2.05,0.08-3.86-0.04-4.8-2.23c-0.04-0.09-0.24-0.12-0.45-0.22c-1.28,1.84-2.56,3.67-3.89,5.59
					c0.35,0.09,0.48,0.15,0.6,0.15c8.42,0.01,16.85,0.03,25.27-0.02c0.43,0,1.08-0.56,1.23-1.01c1.12-3.13,1.36-6.37,0.83-9.64
					c-2.33-14.1-18.58-21.04-30.34-12.95C526.6,397.7,524.83,399.31,523.46,401.64z M524.56,422.81c0.52-0.73,0.84-1.19,1.17-1.64
					c2.23-3.11,4.48-6.2,6.68-9.33c0.2-0.29,0.38-0.87,0.24-1.08c-2.28-3.26-3.94-7.48-9.27-6.16c-0.13,0.03-0.28,0.02-0.42,0
					c-0.97-0.14-1.46,0.32-1.76,1.22c-1.12,3.28-1.57,6.65-0.87,10.05c1.69,8.21,6.58,13.71,14.73,15.69
					c7.97,1.93,14.71-0.63,19.96-6.98c0.4-0.48,0.71-1.03,1.2-1.77C545.55,422.81,535.21,422.81,524.56,422.81z M545.15,413.89
					c0-0.01,0-0.02,0-0.03c1.75,0,3.5,0.05,5.25-0.01c2.16-0.08,3.76-1.73,3.71-3.69c-0.06-1.99-1.7-3.6-3.79-3.64
					c-1.98-0.04-4,0.18-5.95-0.06c-3.02-0.38-5.22,0.48-6.44,3.37c-0.25,0.6-0.8,1.46-0.58,1.8c0.62,0.99,1,2.4,2.7,2.28
					C541.74,413.8,543.45,413.89,545.15,413.89z"/>
			</g>
			<g>
				<rect x="607.74" y="470.06" class="st4" width="29.81" height="114.03"/>
				<rect x="441.66" y="470.06" class="st4" width="29.81" height="114.03"/>
				<g>
					<path class="st4" d="M558.97,525.37l42.12,58.52h-42.93l-33.12-49.36v49.36h-35.69V470.06h35.69v48.07l33.44-48.07h42.61
						L558.97,525.37z"/>
				</g>
			</g>
			<rect x="412.34" y="583.09" class="st4" width="254.53" height="18.87"/>
			<rect x="412.34" y="454.13" class="st4" width="254.53" height="16.66"/>
		</g>
	</g>
</g>
</svg>
