<svg width="1000" height="1000" viewBox="0 0 1000 1000" fill="none" xmlns="http://www.w3.org/2000/svg">
<path d="M812.1 749L500 749.9L187.9 749H90.7C75.6 749 60.5 749 45.3 749C40.8 749.1 31.9 749.8 22.6 754.4C19.6 755.9 8.7 761.6 3.2 773.2C0.6 778.7 0 783.6 0 786.6C0 800 0 813.5 0 826.9C166.7 826.9 333.3 826.9 500 826.9C666.7 826.9 833.3 826.9 1000 826.9C1000 813.5 1000 800 1000 786.6C999.9 783.5 999.4 778.6 996.8 773.2C991.2 761.6 980.4 755.9 977.4 754.4C968.1 749.8 959.3 749.1 954.7 749C939.6 749 924.5 749 909.3 749H812.1Z" fill="#39A4E2"/>
<path d="M979 219L502 0L25 219V256H74C74 256 73 298 123 297V640C109 640 95 640 81 640C76.8 640.1 68.6 640.9 60 646C57.2 647.7 47.2 654 42 667C39.6 673.1 39.1 678.5 39 682C39 697 39 712 39 727C193.3 727 347.7 727 502 727C656.3 727 810.7 727 965 727C965 712 965 697 965 682C964.9 678.5 964.4 673.1 962 667C956.8 654 946.8 647.7 944 646C935.4 640.9 927.2 640.1 923 640C909 640 895 640 881 640V297C931 298 930 256 930 256H979V219ZM530 296.1C531.2 299 533.8 304.2 539 309C544.4 314 550 316.1 553 317C510.3 354.5 467.7 392 425 429.6C425 393.1 425 356.6 425 320C434.2 320.1 441.4 318.5 446 317C450.1 315.7 454 314.5 458.1 311.5C465.1 306.5 468.5 299.8 469.9 296.1L501.9 296L530 296.1ZM213 297L290.3 296.7C291.9 300.5 295.2 306.7 301.9 311.5C306 314.5 309.9 315.7 314 317C318.6 318.5 325.8 320.1 335 320C335 369.7 335 419.3 335 469C335 518.7 335 568.3 335 618C325.8 617.9 318.6 619.5 314 621C310 622.3 306.1 623.5 301.9 626.5C295.6 630.9 292.1 636.6 290.4 640.3L213 640V297ZM469.9 640.9C468.2 637.3 464.8 631.2 458.1 626.5C453.9 623.5 450 622.3 446 621C441.4 619.5 434.2 617.9 425 618C425 584.7 425 551.5 425 518.2L489 462L589 621C568.5 625.7 561 639 560.1 640.8L502 641L469.9 640.9ZM791 640L732.5 640.2C718.5 619.1 699 621 699 621H686L552 407L651 319H670C673.8 318.9 686.7 318 696.9 308C700.9 304.1 703.3 299.9 704.7 296.7L791 297V640Z" fill="#39A4E2"/>
<path d="M502.3 69.8C454 69.8 414.8 109 414.8 157.3C414.8 205.6 454 244.8 502.3 244.8C550.6 244.8 589.8 205.6 589.8 157.3C589.8 108.9 550.6 69.8 502.3 69.8ZM502.3 232.3C460.9 232.3 427.3 198.7 427.3 157.3C427.3 115.9 460.9 82.3 502.3 82.3C543.7 82.3 577.3 115.9 577.3 157.3C577.3 198.7 543.7 232.3 502.3 232.3Z" fill="white"/>
<path d="M431 127H459L492 173C510 173.1 538.5 173.2 546.1 173C546.4 173 547 173 547.8 172.9C555.6 172.1 561 166.9 561.9 166C568.7 159.3 569.1 150.7 569.2 148.4C569.3 146.2 569.3 137.3 562.9 130C561.8 128.7 557 123.2 549.6 122.1C549 122 548.5 122 548.2 122C541.3 121.5 516.2 121.7 496.9 122C479.2 146.7 461.6 171.3 443.9 196H569.9L575.9 185H470L506 134C513.8 134 541.5 133.8 546.1 134C546.3 134 546.8 134 547.5 134.2C551 134.9 553.1 137.8 554.1 139C555 140.3 557.4 143.5 557.3 148.2C557.3 149.5 557.2 153.5 554.1 157C553.5 157.6 551.2 160.3 547.7 160.9C547 161 546.5 161 546.3 161C541.5 161.1 504 161 500.2 161C488.9 145.3 477.5 129.7 466.2 114C457.2 114 448.2 114 439.2 114L431 127Z" fill="white"/>
</svg>